
      <svg data-logo="logo" xmlns="http://www.w3.org/2000/svg" viewBox="0 0 210.3300018310547 41">
        <g id="logogram" transform="
    translate(0, 0.5)
    rotate(0 20 20)
    
  "><path d="M24 0H16V12.0632C15.9663 14.2434 14.1885 16 12.0005 16H0V24H8.68629C10.808 24 12.8429 23.1571 14.3431 21.6569L21.6569 14.3431C23.1571 12.8429 24 10.808 24 8.68629V0Z" fill="url(#paint0_linear_7697_8782)"/><path d="M16 40H24V27.9368C24.0337 25.7566 25.8115 24 27.9995 24H40V16H31.3137C29.192 16 27.1571 16.8429 25.6569 18.3431L18.3431 25.6569C16.8429 27.1571 16 29.192 16 31.3137V40Z" fill="url(#paint1_linear_7697_8782)"/></g>
        <g id="logotype" transform="translate(46, 7.307499999999999)"><path fill="#0d8f91" d="M13.84 26L8.38 26L8.38 1.29L12.30 1.29L22.03 16.45L20.04 16.45L29.73 1.29L33.69 1.29L33.69 26L28.19 26L28.19 10.56L29.17 10.81L22.84 20.68L19.20 20.68L12.89 10.81L13.84 10.56L13.84 26ZM45.62 26.39L45.62 26.39Q42.85 26.39 40.70 25.25Q38.55 24.11 37.32 22.08Q36.10 20.05 36.10 17.49L36.10 17.49Q36.10 14.94 37.31 12.93Q38.52 10.91 40.58 9.76Q42.64 8.60 45.23 8.60L45.23 8.60Q47.75 8.60 49.68 9.69Q51.61 10.77 52.71 12.70Q53.81 14.62 53.81 17.11L53.81 17.11Q53.81 17.56 53.76 18.07Q53.70 18.58 53.56 19.24L53.56 19.24L38.90 19.28L38.90 15.60L51.29 15.57L48.98 17.11Q48.95 15.64 48.52 14.68Q48.10 13.71 47.28 13.21Q46.46 12.70 45.27 12.70L45.27 12.70Q44.01 12.70 43.08 13.28Q42.16 13.85 41.65 14.90Q41.14 15.95 41.14 17.46L41.14 17.46Q41.14 18.96 41.68 20.03Q42.23 21.10 43.22 21.68Q44.22 22.25 45.59 22.25L45.59 22.25Q46.84 22.25 47.86 21.82Q48.88 21.38 49.64 20.50L49.64 20.50L52.59 23.45Q51.33 24.91 49.54 25.65Q47.75 26.39 45.62 26.39ZM62.95 26.35L62.95 26.35Q60.53 26.35 58.66 25.20Q56.79 24.04 55.72 22.04Q54.65 20.05 54.65 17.49L54.65 17.49Q54.65 14.94 55.72 12.94Q56.79 10.95 58.66 9.79Q60.53 8.64 62.95 8.64L62.95 8.64Q64.70 8.64 66.11 9.30Q67.53 9.97 68.46 11.14Q69.39 12.31 69.49 13.82L69.49 13.82L69.49 20.99Q69.39 22.50 68.48 23.71Q67.56 24.91 66.13 25.63Q64.70 26.35 62.95 26.35ZM63.89 21.52L63.89 21.52Q65.05 21.52 65.89 21.01Q66.73 20.50 67.22 19.59Q67.70 18.68 67.70 17.49L67.70 17.49Q67.70 16.30 67.23 15.41Q66.76 14.52 65.90 13.99Q65.05 13.47 63.93 13.47L63.93 13.47Q62.81 13.47 61.95 13.99Q61.09 14.52 60.58 15.43Q60.08 16.34 60.08 17.49L60.08 17.49Q60.08 18.65 60.57 19.56Q61.06 20.47 61.93 20.99Q62.81 21.52 63.89 21.52ZM72.75 0.59L72.75 26L67.50 26L67.50 21.41L68.30 17.28L67.39 13.15L67.39 0.59L72.75 0.59ZM81.18 26L75.83 26L75.83 8.99L81.18 8.99L81.18 26ZM78.52 6.64L78.52 6.64Q77.26 6.64 76.44 5.79Q75.62 4.93 75.62 3.70L75.62 3.70Q75.62 2.44 76.44 1.60Q77.26 0.76 78.52 0.76L78.52 0.76Q79.78 0.76 80.59 1.60Q81.39 2.44 81.39 3.70L81.39 3.70Q81.39 4.93 80.59 5.79Q79.78 6.64 78.52 6.64ZM102.43 26.39L102.43 26.39Q99.66 26.39 97.30 25.42Q94.94 24.46 93.17 22.71Q91.40 20.96 90.42 18.63Q89.44 16.30 89.44 13.61L89.44 13.61Q89.44 10.91 90.42 8.59Q91.40 6.26 93.15 4.54Q94.90 2.83 97.26 1.87Q99.63 0.90 102.39 0.90L102.39 0.90Q105.33 0.90 107.62 1.85Q109.92 2.79 111.63 4.44L111.63 4.44L107.96 8.15Q106.98 7.10 105.59 6.50Q104.21 5.91 102.39 5.91L102.39 5.91Q100.78 5.91 99.43 6.45Q98.09 6.99 97.12 8.01Q96.16 9.02 95.62 10.46Q95.08 11.89 95.08 13.61L95.08 13.61Q95.08 15.36 95.62 16.80Q96.16 18.23 97.12 19.24Q98.09 20.26 99.43 20.82Q100.78 21.38 102.39 21.38L102.39 21.38Q104.28 21.38 105.68 20.79Q107.08 20.19 108.10 19.14L108.10 19.14L111.81 22.85Q110.02 24.50 107.73 25.44Q105.44 26.39 102.43 26.39ZM120.34 26.35L120.34 26.35Q118 26.35 116.16 25.20Q114.32 24.04 113.26 22.04Q112.19 20.05 112.19 17.49L112.19 17.49Q112.19 14.94 113.26 12.94Q114.32 10.95 116.16 9.79Q118 8.64 120.34 8.64L120.34 8.64Q122.06 8.64 123.44 9.30Q124.82 9.97 125.70 11.14Q126.57 12.31 126.68 13.82L126.68 13.82L126.68 21.17Q126.57 22.68 125.72 23.85Q124.86 25.02 123.46 25.68Q122.06 26.35 120.34 26.35ZM121.43 21.52L121.43 21.52Q123.14 21.52 124.19 20.38Q125.24 19.24 125.24 17.49L125.24 17.49Q125.24 16.30 124.77 15.39Q124.30 14.48 123.44 13.98Q122.58 13.47 121.46 13.47L121.46 13.47Q120.34 13.47 119.49 13.98Q118.63 14.48 118.12 15.39Q117.61 16.30 117.61 17.49L117.61 17.49Q117.61 18.65 118.10 19.56Q118.59 20.47 119.47 20.99Q120.34 21.52 121.43 21.52ZM130.28 26L125.03 26L125.03 21.41L125.84 17.28L125.03 13.15L125.03 8.99L130.28 8.99L130.28 26ZM138.72 26L133.37 26L133.37 8.99L138.72 8.99L138.72 26ZM138.72 16.66L138.72 16.66L136.48 14.90Q137.15 11.93 138.72 10.28Q140.30 8.64 143.10 8.64L143.10 8.64Q144.32 8.64 145.25 9.01Q146.18 9.38 146.88 10.14L146.88 10.14L143.69 14.17Q143.34 13.78 142.82 13.57Q142.29 13.36 141.63 13.36L141.63 13.36Q140.30 13.36 139.51 14.19Q138.72 15.01 138.72 16.66ZM155.52 26.39L155.52 26.39Q152.76 26.39 150.60 25.25Q148.45 24.11 147.23 22.08Q146.00 20.05 146.00 17.49L146.00 17.49Q146.00 14.94 147.21 12.93Q148.42 10.91 150.48 9.76Q152.55 8.60 155.14 8.60L155.14 8.60Q157.66 8.60 159.58 9.69Q161.51 10.77 162.61 12.70Q163.71 14.62 163.71 17.11L163.71 17.11Q163.71 17.56 163.66 18.07Q163.61 18.58 163.47 19.24L163.47 19.24L148.80 19.28L148.80 15.60L161.19 15.57L158.88 17.11Q158.85 15.64 158.43 14.68Q158.01 13.71 157.18 13.21Q156.36 12.70 155.17 12.70L155.17 12.70Q153.91 12.70 152.98 13.28Q152.06 13.85 151.55 14.90Q151.04 15.95 151.04 17.46L151.04 17.46Q151.04 18.96 151.58 20.03Q152.13 21.10 153.12 21.68Q154.12 22.25 155.49 22.25L155.49 22.25Q156.75 22.25 157.76 21.82Q158.78 21.38 159.55 20.50L159.55 20.50L162.49 23.45Q161.23 24.91 159.44 25.65Q157.66 26.39 155.52 26.39Z"/></g>
        <defs xmlns="http://www.w3.org/2000/svg">
<linearGradient id="paint0_linear_7697_8782" x1="20" y1="-0.997096" x2="20" y2="33.7931" gradientUnits="userSpaceOnUse">
<stop stop-color="#75D8FC"/>
<stop offset="1" stop-color="#0072E5"/>
</linearGradient>
<linearGradient id="paint1_linear_7697_8782" x1="20" y1="-0.997096" x2="20" y2="33.7931" gradientUnits="userSpaceOnUse">
<stop stop-color="#75D8FC"/>
<stop offset="1" stop-color="#0072E5"/>
</linearGradient>
</defs>
      </svg>
    